HIERARCHY
ROOT Hips
{
  OFFSET -74.5102 94.2646 14.1408
  CHANNELS 6 Xposition Yposition Zposition Zrotation Xrotation Yrotation
  JOINT ToSpine
  {
    OFFSET -2.69724 7.43032 -0.144315
    CHANNELS 3 Zrotation Xrotation Yrotation
    JOINT Spine
    {
      OFFSET -0.0310711 10.7595 1.96963
      CHANNELS 3 Zrotation Xrotation Yrotation
      JOINT Spine1
      {
        OFFSET 13.1342 3.43533 0.764692
        CHANNELS 3 Zrotation Xrotation Yrotation
        JOINT Neck
        {
          OFFSET 29.8703 7.82586 -0.130764
          CHANNELS 3 Zrotation Xrotation Yrotation
          JOINT Head
          {
            OFFSET 9.52751 0.295786 -0.907742
            CHANNELS 3 Zrotation Xrotation Yrotation
            End Site
            {
              OFFSET 16.4037 0.713936 2.7358
            }
          }
        }
        JOINT LeftShoulder
        {
          OFFSET 27.5574 4.95586 2.47156
          CHANNELS 3 Zrotation Xrotation Yrotation
          JOINT LeftArm
          {
            OFFSET 1.20734 -0.998971 20.1238
            CHANNELS 3 Zrotation Xrotation Yrotation
            JOINT LeftForeArm
            {
              OFFSET 26.8049 -0.0536703 -0.155908
              CHANNELS 3 Zrotation Xrotation Yrotation
              JOINT LeftHand
              {
                OFFSET 26.6817 0 0.320147
                CHANNELS 3 Zrotation Xrotation Yrotation
                End Site
                {
                  OFFSET 18.6119 0 0.382219
                }
              }
            }
          }
        }
        JOINT RightShoulder
        {
          OFFSET 27.5927 4.71444 -2.65209
          CHANNELS 3 Zrotation Xrotation Yrotation
          JOINT RightArm
          {
            OFFSET 2.83739 -1.17114 -18.7564
            CHANNELS 3 Zrotation Xrotation Yrotation
            JOINT RightForeArm
            {
              OFFSET 28.839 -0.0548439 1.22491
              CHANNELS 3 Zrotation Xrotation Yrotation
              JOINT RightHand
              {
                OFFSET 26.5114 0 -0.101894
                CHANNELS 3 Zrotation Xrotation Yrotation
                End Site
                {
                  OFFSET 18.2168 0 0
                }
              }
            }
          }
        }
      }
    }
  }
  JOINT LeftUpLeg
  {
    OFFSET -4.76168 -1.9167 -10.2353
    CHANNELS 3 Zrotation Xrotation Yrotation
    JOINT LeftLeg
    {
      OFFSET 2.55951 -42.0585 -8.02213
      CHANNELS 3 Zrotation Xrotation Yrotation
      JOINT LeftFoot
      {
        OFFSET 3.16357 -42.5282 -3.95426
        CHANNELS 3 Zrotation Xrotation Yrotation
        JOINT LeftToeBase
        {
          OFFSET 0.346054 -6.02161 12.8035
          CHANNELS 3 Zrotation Xrotation Yrotation
          End Site
          {
            OFFSET 0.134235 -1.35082 5.13018
          }
        }
      }
    }
  }
  JOINT RightUpLeg
  {
    OFFSET -4.94151 -1.41743 10.6446
    CHANNELS 3 Zrotation Xrotation Yrotation
    JOINT RightLeg
    {
      OFFSET -2.56294 -42.0364 -7.94377
      CHANNELS 3 Zrotation Xrotation Yrotation
      JOINT RightFoot
      {
        OFFSET -3.0952 -42.555 -4.02241
        CHANNELS 3 Zrotation Xrotation Yrotation
        JOINT RightToeBase
        {
          OFFSET -0.0828122 -6.13587 12.8035
          CHANNELS 3 Zrotation Xrotation Yrotation
          End Site
          {
            OFFSET -0.131328 -1.35082 5.13018
          }
        }
      }
    }
  }
}
MOTION
Frames:	15
Frame Time:	0.00833333
-68.9214 98.1332 20.5684 -6.0208 -69.0397 -96.5369 -70.1915 0 88.8779 64.0763 69.6342 24.3434 6.75559 20.8313 0.988329 -162.551 20.8066 176.895 -160.27 60.2862 -174.881 -0.461074 -16.4651 -34.6531 -68.6025 46.4183 -87.0983 8.58503 14.7251 -30.3587 0.420956 0.000574984 0.358659 -2.18615 6.8857 46.0599 -60.1079 -32.7789 96.7488 1.7033 -4.49401 26.2054 0.58676 0.000331564 0.0646656 -54.5621 0.57331 98.774 -1.13895 17.8754 -6.4101 4.67116 -5.67247 -0.906285 -0.285008 0.664521 -0.145598 -54.4612 -0.184145 80.7477 2.68771 14.4949 1.28461 -8.08041 -2.47523 1.21289 0.0272836 -2.65669 1.99168 
-68.9181 98.1335 20.5748 -5.97356 -68.9789 -96.4649 -70.1915 0 88.8779 63.8911 69.5849 24.6252 6.80916 20.842 0.898051 -162.323 20.806 176.827 -160.24 60.2891 -174.638 -0.470947 -16.4993 -34.6798 -68.5297 46.3695 -87.1693 8.56744 14.699 -30.3506 0.420956 0.000574985 0.358659 -2.17986 6.87584 46.0177 -60.1473 -32.8435 96.7737 1.80924 -4.75136 26.165 0.58676 0.000331558 0.0646656 -54.4781 0.580323 98.7537 -1.1092 17.9176 -6.47197 4.48541 -5.79166 -0.896383 -0.358056 0.724703 0.0802926 -54.395 -0.135046 80.7888 2.67099 14.4956 1.33059 -8.17674 -2.399 1.22274 0.076437 -2.74625 1.72786 
-68.9147 98.1331 20.5798 -5.94168 -68.9073 -96.3974 -70.1915 0 88.8779 63.6657 69.5227 24.9747 6.88229 20.8508 0.791568 -162.126 20.8027 176.767 -160.214 60.2878 -174.441 -0.481925 -16.5379 -34.7067 -68.4704 46.3237 -87.2341 8.5541 14.6802 -30.3427 0.420956 0.000574985 0.358659 -2.17301 6.86515 45.971 -60.2002 -32.884 96.798 1.87981 -5.00174 26.099 0.58676 0.000331552 0.0646656 -54.3694 0.606117 98.7418 -1.08696 17.9918 -6.53774 4.333 -5.90571 -0.88886 -0.423561 0.779843 0.278199 -54.3407 -0.0680002 80.8392 2.6543 14.4537 1.36933 -8.26125 -2.30971 1.23126 0.122311 -2.82991 1.47734 
-68.9115 98.1341 20.5876 -5.94766 -68.8089 -96.3408 -70.1915 0 88.8779 63.3396 69.4283 25.4931 7.00426 20.8553 0.644592 -162.004 20.7931 176.729 -160.193 60.2771 -174.359 -0.4908 -16.5678 -34.7331 -68.4445 46.2856 -87.2836 8.55138 14.6797 -30.3356 0.420956 0.000574985 0.358659 -2.16734 6.85604 45.9332 -60.2872 -32.8642 96.8203 1.86201 -5.23462 25.9684 0.58676 0.000331547 0.0646656 -54.199 0.679059 98.7502 -1.08343 18.1465 -6.61333 4.26388 -6.0069 -0.887289 -0.469314 0.822399 0.406133 -54.3159 0.0436888 80.913 2.63773 14.3051 1.39 -8.31616 -2.18778 1.23644 0.161418 -2.89885 1.26015 
-68.9086 98.1389 20.6027 -6.01362 -68.6616 -96.2957 -70.1915 0 88.8779 62.8381 69.2739 26.3091 7.21134 20.8523 0.423451 -161.995 20.7722 176.722 -160.178 60.2496 -174.466 -0.494347 -16.5761 -34.7578 -68.4886 46.2597 -87.2966 8.5777 14.728 -30.3322 0.420956 0.000574985 0.358659 -2.16459 6.85095 45.9179 -60.4272 -32.7469 96.8423 1.69981 -5.44027 25.7288 0.58676 0.000331544 0.0646656 -53.9201 0.835873 98.7916 -1.11078 18.4385 -6.70833 4.32785 -6.10282 -0.895796 -0.494609 0.868489 0.425738 -54.3381 0.232661 81.0332 2.6202 13.9737 1.358 -8.34072 -2.00528 1.23823 0.18703 -2.95792 1.13554 
-68.9063 98.1499 20.6306 -6.12231 -68.4799 -96.2591 -70.1915 0 88.8779 62.2256 69.0733 27.3223 7.47832 20.8439 0.150197 -162.068 20.7433 176.737 -160.168 60.21 -174.706 -0.489347 -16.5495 -34.7821 -68.5815 46.2424 -87.2843 8.62407 14.8101 -30.3313 0.420956 0.000574985 0.358659 -2.16651 6.85216 45.9393 -60.605 -32.5606 96.8634 1.4344 -5.62697 25.4123 0.58676 0.000331541 0.0646656 -53.5649 1.05443 98.8523 -1.15893 18.8274 -6.81749 4.48606 -6.19438 -0.911423 -0.504756 0.9161 0.368457 -54.3945 0.470421 81.1902 2.60107 13.5131 1.28997 -8.34305 -1.78021 1.23755 0.203402 -3.00944 1.07488 
-68.9044 98.1654 20.6675 -6.23687 -68.3028 -96.2316 -70.1915 0 88.8779 61.6435 68.872 28.2971 7.74237 20.8347 -0.115891 -162.16 20.7151 176.759 -160.165 60.1712 -174.953 -0.478255 -16.4981 -34.806 -68.6564 46.2264 -87.2865 8.65579 14.8684 -30.3273 0.420956 0.000574984 0.358659 -2.17175 6.85784 45.9867 -60.7896 -32.3675 96.8793 1.15879 -5.81108 25.0935 0.58676 0.000331539 0.0646656 -53.2155 1.2729 98.9077 -1.20623 19.215 -6.92414 4.65547 -6.26382 -0.927111 -0.496664 0.930493 0.296999 -54.457 0.695527 81.3473 2.58267 13.0548 1.25151 -8.3187 -1.56192 1.23387 0.223402 -3.04082 0.966349 
-68.9026 98.1809 20.7037 -6.32034 -68.1691 -96.2137 -70.1915 0 88.8779 61.2169 68.7203 29.0141 7.94076 20.8299 -0.315575 -162.211 20.6962 176.775 -160.171 60.1469 -175.081 -0.466368 -16.4444 -34.8267 -68.6463 46.2044 -87.3427 8.63815 14.8452 -30.3142 0.420956 0.000574982 0.358659 -2.17737 6.86421 46.0358 -60.9497 -32.2295 96.8867 0.966604 -6.00888 24.8475 0.58676 0.000331536 0.0646656 -52.9533 1.4255 98.9388 -1.23227 19.5034 -7.01094 4.7531 -6.29338 -0.935793 -0.467507 0.876932 0.274081 -54.4962 0.854172 81.4617 2.56964 12.7301 1.30757 -8.26323 -1.39973 1.22662 0.259801 -3.03941 0.698121 
-68.9006 98.1921 20.7295 -6.35898 -68.0919 -96.209 -70.1915 0 88.8779 60.9675 68.6388 29.4169 8.05692 20.8336 -0.432541 -162.207 20.6938 176.783 -160.196 60.1481 -175.035 -0.459021 -16.4109 -34.8413 -68.4857 46.17 -87.5043 8.53257 14.6801 -30.2791 0.420956 0.000574978 0.358659 -2.18038 6.86755 46.0625 -61.0918 -32.1726 96.8815 0.900297 -6.26823 24.6947 0.58676 0.000331532 0.0646656 -52.8053 1.4777 98.9388 -1.22783 19.6591 -7.08872 4.75202 -6.24217 -0.933754 -0.396009 0.678169 0.370428 -54.5005 0.926832 81.5098 2.56691 12.588 1.52207 -8.14789 -1.31514 1.2124 0.324128 -2.97287 0.154816 
-68.8974 98.1979 20.7407 -6.37347 -68.0497 -96.2159 -70.1915 0 88.8779 60.8221 68.6014 29.6322 8.1243 20.8424 -0.498577 -162.181 20.7017 176.79 -160.236 60.165 -174.888 -0.457744 -16.4049 -34.8443 -68.2266 46.1278 -87.7362 8.36772 14.4187 -30.2295 0.420956 0.000574972 0.358659 -2.17894 6.86581 46.0503 -61.2275 -32.1606 96.8669 0.90472 -6.56576 24.5953 0.58676 0.000331526 0.0646656 -52.7261 1.46849 98.9215 -1.20586 19.7368 -7.16114 4.69809 -6.13171 -0.925375 -0.289174 0.375398 0.534586 -54.4859 0.948749 81.5149 2.57131 12.5534 1.84466 -7.98424 -1.27906 1.19258 0.409302 -2.85724 -0.575281 
-68.8935 98.2007 20.7432 -6.37846 -68.0291 -96.2266 -70.1915 0 88.8779 60.756 68.5906 29.7219 8.15532 20.8502 -0.526613 -162.136 20.7081 176.795 -160.27 60.1811 -174.711 -0.459675 -16.4141 -34.8388 -67.978 46.0879 -87.9481 8.20932 14.1626 -30.1897 0.420956 0.000574967 0.358659 -2.17499 6.86135 46.0156 -61.3329 -32.162 96.851 0.928 -6.81063 24.5335 0.58676 0.000331522 0.0646656 -52.6881 1.44086 98.9008 -1.17991 19.7715 -7.19975 4.61754 -6.03787 -0.915725 -0.188765 0.11154 0.646017 -54.4648 0.951284 81.5033 2.57578 12.5722 2.16878 -7.82831 -1.26494 1.17377 0.497941 -2.75268 -1.29862 
-68.8907 98.201 20.7417 -6.38863 -68.0168 -96.2335 -70.1915 0 88.8779 60.7466 68.5884 29.7461 8.16237 20.8509 -0.529572 -162.077 20.7012 176.797 -160.28 60.1801 -174.572 -0.463589 -16.4311 -34.8349 -67.8488 46.0613 -88.0509 8.12241 14.0134 -30.183 0.420956 0.000574964 0.358659 -2.17122 6.85701 45.9827 -61.3842 -32.1456 96.8422 0.918321 -6.91193 24.4925 0.58676 0.00033152 0.0646656 -52.6639 1.43749 98.8908 -1.16338 19.7981 -7.17618 4.53668 -6.03653 -0.909858 -0.139486 0.0294949 0.584177 -54.4492 0.965303 81.5013 2.57428 12.5906 2.38765 -7.73614 -1.24624 1.16256 0.56853 -2.71978 -1.82184 
-68.8908 98.1997 20.7409 -6.40352 -68.017 -96.2315 -70.1915 0 88.8779 60.8281 68.6015 29.6662 8.12926 20.8419 -0.493487 -161.994 20.675 176.799 -160.267 60.156 -174.475 -0.468269 -16.4484 -34.8426 -67.891 46.054 -87.9961 8.13239 14.0089 -30.2219 0.420956 0.000574963 0.358659 -2.17033 6.85568 45.9764 -61.3206 -32.0956 96.8567 0.850908 -6.75973 24.4873 0.58676 0.000331522 0.0646656 -52.6611 1.46974 98.8944 -1.15775 19.8098 -7.0375 4.44018 -6.19279 -0.909371 -0.167084 0.244756 0.20524 -54.438 0.995106 81.512 2.56562 12.6166 2.45591 -7.74718 -1.21503 1.16363 0.613784 -2.81377 -2.06848 
-68.8954 98.195 20.7406 -6.41682 -68.0342 -96.2259 -70.1915 0 88.8779 60.9992 68.6355 29.4681 8.05591 20.8269 -0.417279 -161.89 20.6368 176.802 -160.239 60.1181 -174.387 -0.474889 -16.4686 -34.8714 -68.0389 46.0592 -87.8397 8.20184 14.0912 -30.2917 0.420956 0.000574964 0.358659 -2.17413 6.85911 46.0142 -61.1731 -32.0312 96.8851 0.757259 -6.43103 24.5208 0.58676 0.000331528 0.0646656 -52.6895 1.51496 98.9043 -1.15651 19.793 -6.81397 4.32144 -6.45124 -0.911499 -0.23693 0.6553 -0.389308 -54.4262 1.0255 81.5227 2.55265 12.6716 2.43619 -7.8234 -1.18575 1.17248 0.643934 -2.98955 -2.15006 
-68.9031 98.1873 20.7386 -6.43427 -68.0557 -96.2239 -70.1915 0 88.8779 61.1847 68.6712 29.2489 7.97885 20.8086 -0.333201 -161.781 20.5946 176.796 -160.186 60.0734 -174.328 -0.483629 -16.4941 -34.9136 -68.2236 46.0693 -87.6499 8.30142 14.2188 -30.3738 0.420956 0.000574966 0.358659 -2.18085 6.86541 46.0793 -61.0551 -31.9733 96.8979 0.670133 -6.1151 24.557 0.58676 0.000331534 0.0646656 -52.7243 1.56463 98.919 -1.16117 19.7731 -6.60199 4.21995 -6.70693 -0.914737 -0.309817 1.07767 -0.952097 -54.4203 1.05803 81.5364 2.53636 12.7225 2.38349 -7.90456 -1.16541 1.182 0.662494 -3.1573 -2.15527 
